<mxfile host="app.diagrams.net" agent="Mozilla/5.0 (Windows NT 10.0; Win64; x64) AppleWebKit/537.36 (KHTML, like Gecko) Chrome/128.0.0.0 Safari/537.36 OPR/114.0.0.0" version="24.9.1">
  <diagram id="C5RBs43oDa-KdzZeNtuy" name="Page-1">
    <mxGraphModel dx="1249" dy="573" grid="1" gridSize="10" guides="1" tooltips="1" connect="1" arrows="1" fold="1" page="1" pageScale="1" pageWidth="1169" pageHeight="827" background="none" math="0" shadow="0">
      <root>
        <mxCell id="WIyWlLk6GJQsqaUBKTNV-0" />
        <mxCell id="WIyWlLk6GJQsqaUBKTNV-1" parent="WIyWlLk6GJQsqaUBKTNV-0" />
        <mxCell id="WIyWlLk6GJQsqaUBKTNV-2" value="" style="rounded=0;html=1;jettySize=auto;orthogonalLoop=1;fontSize=11;endArrow=block;endFill=0;endSize=8;strokeWidth=1;shadow=0;labelBackgroundColor=none;edgeStyle=orthogonalEdgeStyle;fontColor=default;" parent="WIyWlLk6GJQsqaUBKTNV-1" edge="1">
          <mxGeometry relative="1" as="geometry">
            <mxPoint x="220.0588235294117" y="120" as="sourcePoint" />
            <mxPoint x="220.0000000000001" y="160" as="targetPoint" />
          </mxGeometry>
        </mxCell>
        <mxCell id="ZbzTx8bvdQ4IVM7PE_-E-2" style="edgeStyle=orthogonalEdgeStyle;rounded=0;orthogonalLoop=1;jettySize=auto;html=1;exitX=0.5;exitY=1;exitDx=0;exitDy=0;labelBackgroundColor=none;fontColor=default;" edge="1" parent="WIyWlLk6GJQsqaUBKTNV-1">
          <mxGeometry relative="1" as="geometry">
            <mxPoint x="219.86206896551732" y="120.17241379310349" as="targetPoint" />
            <mxPoint x="220" y="120" as="sourcePoint" />
          </mxGeometry>
        </mxCell>
        <mxCell id="ZbzTx8bvdQ4IVM7PE_-E-1" value="Parse the provided format &lt;span class=&quot;hljs-type&quot;&gt;string&lt;/span&gt;" style="shape=parallelogram;perimeter=parallelogramPerimeter;whiteSpace=wrap;html=1;fixedSize=1;labelBackgroundColor=none;" vertex="1" parent="WIyWlLk6GJQsqaUBKTNV-1">
          <mxGeometry x="140" y="160" width="140" height="60" as="geometry" />
        </mxCell>
        <mxCell id="ZbzTx8bvdQ4IVM7PE_-E-4" value="" style="endArrow=classic;html=1;rounded=0;exitX=0;exitY=1;exitDx=0;exitDy=0;labelBackgroundColor=none;fontColor=default;" edge="1" parent="WIyWlLk6GJQsqaUBKTNV-1">
          <mxGeometry width="50" height="50" relative="1" as="geometry">
            <mxPoint x="199.4100000000001" y="220" as="sourcePoint" />
            <mxPoint x="199.41" y="270" as="targetPoint" />
          </mxGeometry>
        </mxCell>
        <mxCell id="ZbzTx8bvdQ4IVM7PE_-E-15" value="" style="endArrow=none;html=1;rounded=0;labelBackgroundColor=none;fontColor=default;" edge="1" parent="WIyWlLk6GJQsqaUBKTNV-1">
          <mxGeometry width="50" height="50" relative="1" as="geometry">
            <mxPoint x="199.66" y="330" as="sourcePoint" />
            <mxPoint x="200" y="470" as="targetPoint" />
          </mxGeometry>
        </mxCell>
        <mxCell id="ZbzTx8bvdQ4IVM7PE_-E-16" value="" style="endArrow=none;html=1;rounded=0;labelBackgroundColor=none;fontColor=default;" edge="1" parent="WIyWlLk6GJQsqaUBKTNV-1">
          <mxGeometry width="50" height="50" relative="1" as="geometry">
            <mxPoint x="200" y="370" as="sourcePoint" />
            <mxPoint x="550" y="370" as="targetPoint" />
          </mxGeometry>
        </mxCell>
        <mxCell id="ZbzTx8bvdQ4IVM7PE_-E-17" value="" style="endArrow=none;html=1;rounded=0;labelBackgroundColor=none;fontColor=default;" edge="1" parent="WIyWlLk6GJQsqaUBKTNV-1">
          <mxGeometry width="50" height="50" relative="1" as="geometry">
            <mxPoint x="550" y="370" as="sourcePoint" />
            <mxPoint x="550" y="460" as="targetPoint" />
          </mxGeometry>
        </mxCell>
        <mxCell id="ZbzTx8bvdQ4IVM7PE_-E-18" value="No specifier found" style="text;html=1;align=center;verticalAlign=middle;resizable=0;points=[];autosize=1;strokeColor=none;fillColor=none;labelBackgroundColor=none;" vertex="1" parent="WIyWlLk6GJQsqaUBKTNV-1">
          <mxGeometry x="400" y="410" width="120" height="30" as="geometry" />
        </mxCell>
        <mxCell id="ZbzTx8bvdQ4IVM7PE_-E-19" value="Copy the character &lt;span class=&quot;hljs-keyword&quot;&gt;to&lt;/span&gt; the output" style="shape=parallelogram;perimeter=parallelogramPerimeter;whiteSpace=wrap;html=1;fixedSize=1;labelBackgroundColor=none;" vertex="1" parent="WIyWlLk6GJQsqaUBKTNV-1">
          <mxGeometry x="460" y="460" width="160" height="60" as="geometry" />
        </mxCell>
        <mxCell id="ZbzTx8bvdQ4IVM7PE_-E-20" value="" style="endArrow=none;html=1;rounded=0;labelBackgroundColor=none;fontColor=default;" edge="1" parent="WIyWlLk6GJQsqaUBKTNV-1">
          <mxGeometry width="50" height="50" relative="1" as="geometry">
            <mxPoint x="550" y="590" as="sourcePoint" />
            <mxPoint x="550" y="520" as="targetPoint" />
          </mxGeometry>
        </mxCell>
        <mxCell id="ZbzTx8bvdQ4IVM7PE_-E-22" value="" style="endArrow=classic;html=1;rounded=0;labelBackgroundColor=none;fontColor=default;" edge="1" parent="WIyWlLk6GJQsqaUBKTNV-1">
          <mxGeometry width="50" height="50" relative="1" as="geometry">
            <mxPoint x="539.47" y="650" as="sourcePoint" />
            <mxPoint x="539.47" y="710" as="targetPoint" />
          </mxGeometry>
        </mxCell>
        <mxCell id="ZbzTx8bvdQ4IVM7PE_-E-23" value="Increment printed_chars" style="shape=parallelogram;perimeter=parallelogramPerimeter;whiteSpace=wrap;html=1;fixedSize=1;labelBackgroundColor=none;" vertex="1" parent="WIyWlLk6GJQsqaUBKTNV-1">
          <mxGeometry x="475" y="590" width="130" height="60" as="geometry" />
        </mxCell>
        <mxCell id="ZbzTx8bvdQ4IVM7PE_-E-24" value="Are there more characters &lt;span class=&quot;hljs-keyword&quot;&gt;in&lt;/span&gt;&lt;div&gt;&lt;span class=&quot;hljs-keyword&quot;&gt;the format &lt;span class=&quot;hljs-type&quot;&gt;string&lt;/span&gt;?&amp;nbsp;&lt;br&gt;&lt;/span&gt;&lt;/div&gt;" style="shape=parallelogram;perimeter=parallelogramPerimeter;whiteSpace=wrap;html=1;fixedSize=1;labelBackgroundColor=none;" vertex="1" parent="WIyWlLk6GJQsqaUBKTNV-1">
          <mxGeometry x="475" y="710" width="120" height="60" as="geometry" />
        </mxCell>
        <mxCell id="ZbzTx8bvdQ4IVM7PE_-E-25" value="" style="endArrow=none;html=1;rounded=0;entryX=0.408;entryY=0.002;entryDx=0;entryDy=0;entryPerimeter=0;labelBackgroundColor=none;fontColor=default;" edge="1" parent="WIyWlLk6GJQsqaUBKTNV-1">
          <mxGeometry width="50" height="50" relative="1" as="geometry">
            <mxPoint x="530.64" y="759.86" as="sourcePoint" />
            <mxPoint x="529.9999999999999" y="1010.0000000000001" as="targetPoint" />
          </mxGeometry>
        </mxCell>
        <mxCell id="ZbzTx8bvdQ4IVM7PE_-E-26" value="Yes (more characters &lt;span class=&quot;hljs-keyword&quot;&gt;to&lt;/span&gt; process)" style="text;html=1;align=center;verticalAlign=middle;resizable=0;points=[];autosize=1;strokeColor=none;fillColor=none;labelBackgroundColor=none;" vertex="1" parent="WIyWlLk6GJQsqaUBKTNV-1">
          <mxGeometry x="530" y="820" width="200" height="30" as="geometry" />
        </mxCell>
        <mxCell id="ZbzTx8bvdQ4IVM7PE_-E-27" value="&lt;span class=&quot;hljs-keyword&quot;&gt;Continue&lt;/span&gt; parsing the &lt;span class=&quot;hljs-keyword&quot;&gt;next&lt;/span&gt; character" style="shape=parallelogram;perimeter=parallelogramPerimeter;whiteSpace=wrap;html=1;fixedSize=1;labelBackgroundColor=none;" vertex="1" parent="WIyWlLk6GJQsqaUBKTNV-1">
          <mxGeometry x="460" y="1010" width="170" height="70" as="geometry" />
        </mxCell>
        <mxCell id="ZbzTx8bvdQ4IVM7PE_-E-28" value="" style="endArrow=classic;html=1;rounded=0;labelBackgroundColor=none;fontColor=default;" edge="1" parent="WIyWlLk6GJQsqaUBKTNV-1">
          <mxGeometry width="50" height="50" relative="1" as="geometry">
            <mxPoint x="530" y="1090" as="sourcePoint" />
            <mxPoint x="530" y="1250" as="targetPoint" />
          </mxGeometry>
        </mxCell>
        <mxCell id="ZbzTx8bvdQ4IVM7PE_-E-29" value="&lt;span class=&quot;hljs-keyword&quot;&gt;Return&lt;/span&gt; the number &lt;span class=&quot;hljs-keyword&quot;&gt;of&lt;/span&gt; characters printed" style="rounded=1;whiteSpace=wrap;html=1;labelBackgroundColor=none;" vertex="1" parent="WIyWlLk6GJQsqaUBKTNV-1">
          <mxGeometry x="465" y="1250" width="120" height="60" as="geometry" />
        </mxCell>
        <mxCell id="ZbzTx8bvdQ4IVM7PE_-E-30" value="Yes (specifier found)" style="text;html=1;align=center;verticalAlign=middle;resizable=0;points=[];autosize=1;strokeColor=none;fillColor=none;labelBackgroundColor=none;" vertex="1" parent="WIyWlLk6GJQsqaUBKTNV-1">
          <mxGeometry x="70" y="400" width="130" height="30" as="geometry" />
        </mxCell>
        <mxCell id="ZbzTx8bvdQ4IVM7PE_-E-31" value="Fetch the corresponding specifier &lt;span class=&quot;hljs-keyword&quot;&gt;function&lt;/span&gt;" style="shape=parallelogram;perimeter=parallelogramPerimeter;whiteSpace=wrap;html=1;fixedSize=1;labelBackgroundColor=none;" vertex="1" parent="WIyWlLk6GJQsqaUBKTNV-1">
          <mxGeometry x="140" y="470" width="120" height="60" as="geometry" />
        </mxCell>
        <mxCell id="ZbzTx8bvdQ4IVM7PE_-E-32" value="" style="endArrow=none;html=1;rounded=0;labelBackgroundColor=none;fontColor=default;" edge="1" parent="WIyWlLk6GJQsqaUBKTNV-1">
          <mxGeometry width="50" height="50" relative="1" as="geometry">
            <mxPoint x="200" y="600" as="sourcePoint" />
            <mxPoint x="200" y="530" as="targetPoint" />
          </mxGeometry>
        </mxCell>
        <mxCell id="ZbzTx8bvdQ4IVM7PE_-E-34" value="&lt;span class=&quot;hljs-keyword&quot;&gt;Call&lt;/span&gt; the specifier &lt;span class=&quot;hljs-keyword&quot;&gt;function&lt;/span&gt; (e.g.,print_char, print_string, print_int, etc.)" style="shape=parallelogram;perimeter=parallelogramPerimeter;whiteSpace=wrap;html=1;fixedSize=1;labelBackgroundColor=none;" vertex="1" parent="WIyWlLk6GJQsqaUBKTNV-1">
          <mxGeometry x="100" y="600" width="180" height="70" as="geometry" />
        </mxCell>
        <mxCell id="ZbzTx8bvdQ4IVM7PE_-E-35" value="" style="endArrow=none;html=1;rounded=0;labelBackgroundColor=none;fontColor=default;" edge="1" parent="WIyWlLk6GJQsqaUBKTNV-1">
          <mxGeometry width="50" height="50" relative="1" as="geometry">
            <mxPoint x="190" y="750" as="sourcePoint" />
            <mxPoint x="190" y="670" as="targetPoint" />
          </mxGeometry>
        </mxCell>
        <mxCell id="ZbzTx8bvdQ4IVM7PE_-E-36" value="Add the result &lt;span class=&quot;hljs-keyword&quot;&gt;to&lt;/span&gt; the formatted &lt;span class=&quot;hljs-type&quot;&gt;string&lt;/span&gt;" style="shape=parallelogram;perimeter=parallelogramPerimeter;whiteSpace=wrap;html=1;fixedSize=1;labelBackgroundColor=none;" vertex="1" parent="WIyWlLk6GJQsqaUBKTNV-1">
          <mxGeometry x="100" y="750" width="140" height="60" as="geometry" />
        </mxCell>
        <mxCell id="ZbzTx8bvdQ4IVM7PE_-E-37" value="" style="endArrow=none;html=1;rounded=0;labelBackgroundColor=none;fontColor=default;" edge="1" parent="WIyWlLk6GJQsqaUBKTNV-1">
          <mxGeometry width="50" height="50" relative="1" as="geometry">
            <mxPoint x="170" y="880" as="sourcePoint" />
            <mxPoint x="170" y="810" as="targetPoint" />
          </mxGeometry>
        </mxCell>
        <mxCell id="ZbzTx8bvdQ4IVM7PE_-E-38" value="Increment printed_chars" style="text;html=1;align=center;verticalAlign=middle;resizable=0;points=[];autosize=1;strokeColor=none;fillColor=none;labelBackgroundColor=none;" vertex="1" parent="WIyWlLk6GJQsqaUBKTNV-1">
          <mxGeometry x="20" y="830" width="150" height="30" as="geometry" />
        </mxCell>
        <mxCell id="ZbzTx8bvdQ4IVM7PE_-E-39" value="&lt;span class=&quot;hljs-keyword&quot;&gt;Continue&lt;/span&gt; parsing the format &lt;span class=&quot;hljs-type&quot;&gt;string&lt;/span&gt;" style="shape=parallelogram;perimeter=parallelogramPerimeter;whiteSpace=wrap;html=1;fixedSize=1;labelBackgroundColor=none;" vertex="1" parent="WIyWlLk6GJQsqaUBKTNV-1">
          <mxGeometry x="90" y="880" width="140" height="65" as="geometry" />
        </mxCell>
        <mxCell id="ZbzTx8bvdQ4IVM7PE_-E-40" value="" style="endArrow=none;html=1;rounded=0;labelBackgroundColor=none;fontColor=default;" edge="1" parent="WIyWlLk6GJQsqaUBKTNV-1">
          <mxGeometry width="50" height="50" relative="1" as="geometry">
            <mxPoint x="160" y="1010" as="sourcePoint" />
            <mxPoint x="160" y="950" as="targetPoint" />
          </mxGeometry>
        </mxCell>
        <mxCell id="ZbzTx8bvdQ4IVM7PE_-E-42" value="" style="endArrow=classic;html=1;rounded=0;labelBackgroundColor=none;fontColor=default;" edge="1" parent="WIyWlLk6GJQsqaUBKTNV-1">
          <mxGeometry width="50" height="50" relative="1" as="geometry">
            <mxPoint x="159.47" y="1070" as="sourcePoint" />
            <mxPoint x="159.47" y="1160" as="targetPoint" />
          </mxGeometry>
        </mxCell>
        <mxCell id="ZbzTx8bvdQ4IVM7PE_-E-43" value="" style="endArrow=classic;html=1;rounded=0;labelBackgroundColor=none;fontColor=default;" edge="1" parent="WIyWlLk6GJQsqaUBKTNV-1">
          <mxGeometry width="50" height="50" relative="1" as="geometry">
            <mxPoint x="210" y="1050" as="sourcePoint" />
            <mxPoint x="470" y="1050" as="targetPoint" />
          </mxGeometry>
        </mxCell>
        <mxCell id="ZbzTx8bvdQ4IVM7PE_-E-44" value="No" style="text;html=1;align=center;verticalAlign=middle;resizable=0;points=[];autosize=1;strokeColor=none;fillColor=none;labelBackgroundColor=none;" vertex="1" parent="WIyWlLk6GJQsqaUBKTNV-1">
          <mxGeometry x="115" y="1098" width="40" height="30" as="geometry" />
        </mxCell>
        <mxCell id="ZbzTx8bvdQ4IVM7PE_-E-45" value="Yes" style="text;html=1;align=center;verticalAlign=middle;resizable=0;points=[];autosize=1;strokeColor=none;fillColor=none;labelBackgroundColor=none;" vertex="1" parent="WIyWlLk6GJQsqaUBKTNV-1">
          <mxGeometry x="310" y="1020" width="40" height="30" as="geometry" />
        </mxCell>
        <mxCell id="ZbzTx8bvdQ4IVM7PE_-E-46" value="Print the formatted &lt;span class=&quot;hljs-type&quot;&gt;string&lt;/span&gt; &lt;span class=&quot;hljs-keyword&quot;&gt;to&lt;/span&gt; standard&amp;nbsp;output (console)" style="shape=parallelogram;perimeter=parallelogramPerimeter;whiteSpace=wrap;html=1;fixedSize=1;labelBackgroundColor=none;" vertex="1" parent="WIyWlLk6GJQsqaUBKTNV-1">
          <mxGeometry x="60" y="1160" width="180" height="60" as="geometry" />
        </mxCell>
        <mxCell id="ZbzTx8bvdQ4IVM7PE_-E-47" value="" style="endArrow=classic;html=1;rounded=0;entryX=0.398;entryY=-0.012;entryDx=0;entryDy=0;entryPerimeter=0;labelBackgroundColor=none;fontColor=default;" edge="1" parent="WIyWlLk6GJQsqaUBKTNV-1" target="ZbzTx8bvdQ4IVM7PE_-E-49">
          <mxGeometry width="50" height="50" relative="1" as="geometry">
            <mxPoint x="155" y="1220" as="sourcePoint" />
            <mxPoint x="155" y="1300" as="targetPoint" />
          </mxGeometry>
        </mxCell>
        <mxCell id="ZbzTx8bvdQ4IVM7PE_-E-49" value="&lt;span class=&quot;hljs-keyword&quot;&gt;Return&lt;/span&gt; the number &lt;span class=&quot;hljs-keyword&quot;&gt;of&lt;/span&gt; characters printed" style="rounded=1;whiteSpace=wrap;html=1;labelBackgroundColor=none;" vertex="1" parent="WIyWlLk6GJQsqaUBKTNV-1">
          <mxGeometry x="180" y="1320" width="120" height="60" as="geometry" />
        </mxCell>
        <mxCell id="ZbzTx8bvdQ4IVM7PE_-E-52" value="Start (&lt;span class=&quot;hljs-keyword&quot;&gt;Call&lt;/span&gt;&amp;nbsp;&lt;span class=&quot;hljs-keyword&quot;&gt;to&lt;/span&gt;&amp;nbsp;printf)" style="ellipse;whiteSpace=wrap;html=1;labelBackgroundColor=none;" vertex="1" parent="WIyWlLk6GJQsqaUBKTNV-1">
          <mxGeometry x="160" y="40" width="120" height="80" as="geometry" />
        </mxCell>
        <mxCell id="ZbzTx8bvdQ4IVM7PE_-E-53" value="&lt;span class=&quot;hljs-built_in&quot;&gt;Is&lt;/span&gt;&amp;nbsp;there a format specifier?" style="rhombus;whiteSpace=wrap;html=1;labelBackgroundColor=none;" vertex="1" parent="WIyWlLk6GJQsqaUBKTNV-1">
          <mxGeometry x="120" y="250" width="160" height="100" as="geometry" />
        </mxCell>
        <mxCell id="ZbzTx8bvdQ4IVM7PE_-E-55" value="Are there more characters&amp;nbsp;&lt;span class=&quot;hljs-keyword&quot;&gt;in&amp;nbsp;&lt;/span&gt;the format&amp;nbsp;&lt;span class=&quot;hljs-type&quot;&gt;string&lt;/span&gt;?" style="rhombus;whiteSpace=wrap;html=1;labelBackgroundColor=none;" vertex="1" parent="WIyWlLk6GJQsqaUBKTNV-1">
          <mxGeometry x="60" y="980" width="200" height="140" as="geometry" />
        </mxCell>
        <mxCell id="ZbzTx8bvdQ4IVM7PE_-E-56" value="" style="endArrow=classic;html=1;rounded=0;exitX=0.614;exitY=1.002;exitDx=0;exitDy=0;exitPerimeter=0;labelBackgroundColor=none;fontColor=default;" edge="1" parent="WIyWlLk6GJQsqaUBKTNV-1" source="ZbzTx8bvdQ4IVM7PE_-E-49">
          <mxGeometry width="50" height="50" relative="1" as="geometry">
            <mxPoint x="230" y="1380" as="sourcePoint" />
            <mxPoint x="310" y="1430" as="targetPoint" />
          </mxGeometry>
        </mxCell>
        <mxCell id="ZbzTx8bvdQ4IVM7PE_-E-57" value="" style="endArrow=classic;html=1;rounded=0;labelBackgroundColor=none;fontColor=default;" edge="1" parent="WIyWlLk6GJQsqaUBKTNV-1" target="ZbzTx8bvdQ4IVM7PE_-E-58">
          <mxGeometry width="50" height="50" relative="1" as="geometry">
            <mxPoint x="530" y="1310" as="sourcePoint" />
            <mxPoint x="450" y="1390" as="targetPoint" />
          </mxGeometry>
        </mxCell>
        <mxCell id="ZbzTx8bvdQ4IVM7PE_-E-58" value="End" style="ellipse;whiteSpace=wrap;html=1;labelBackgroundColor=none;" vertex="1" parent="WIyWlLk6GJQsqaUBKTNV-1">
          <mxGeometry x="310" y="1390" width="120" height="80" as="geometry" />
        </mxCell>
        <mxCell id="ZbzTx8bvdQ4IVM7PE_-E-59" value="" style="endArrow=classic;html=1;rounded=0;labelBackgroundColor=none;fontColor=default;" edge="1" parent="WIyWlLk6GJQsqaUBKTNV-1">
          <mxGeometry width="50" height="50" relative="1" as="geometry">
            <mxPoint x="530" y="1170" as="sourcePoint" />
            <mxPoint x="666" y="1170" as="targetPoint" />
          </mxGeometry>
        </mxCell>
        <mxCell id="ZbzTx8bvdQ4IVM7PE_-E-60" value="ERROR" style="text;html=1;align=center;verticalAlign=middle;whiteSpace=wrap;rounded=0;labelBackgroundColor=none;" vertex="1" parent="WIyWlLk6GJQsqaUBKTNV-1">
          <mxGeometry x="550" y="1140" width="70" height="42" as="geometry" />
        </mxCell>
        <mxCell id="ZbzTx8bvdQ4IVM7PE_-E-61" value="Return -1" style="rounded=1;whiteSpace=wrap;html=1;labelBackgroundColor=none;" vertex="1" parent="WIyWlLk6GJQsqaUBKTNV-1">
          <mxGeometry x="670" y="1140" width="120" height="60" as="geometry" />
        </mxCell>
        <mxCell id="ZbzTx8bvdQ4IVM7PE_-E-63" value="Return -1" style="rounded=1;whiteSpace=wrap;html=1;labelBackgroundColor=none;" vertex="1" parent="WIyWlLk6GJQsqaUBKTNV-1">
          <mxGeometry y="1250" width="120" height="60" as="geometry" />
        </mxCell>
        <mxCell id="ZbzTx8bvdQ4IVM7PE_-E-64" value="ERROR" style="text;html=1;align=center;verticalAlign=middle;whiteSpace=wrap;rounded=0;labelBackgroundColor=none;" vertex="1" parent="WIyWlLk6GJQsqaUBKTNV-1">
          <mxGeometry x="130" y="1260" width="60" height="30" as="geometry" />
        </mxCell>
        <mxCell id="ZbzTx8bvdQ4IVM7PE_-E-65" value="" style="endArrow=classic;html=1;rounded=0;labelBackgroundColor=none;fontColor=default;" edge="1" parent="WIyWlLk6GJQsqaUBKTNV-1">
          <mxGeometry width="50" height="50" relative="1" as="geometry">
            <mxPoint x="204" y="1290" as="sourcePoint" />
            <mxPoint x="120" y="1290" as="targetPoint" />
          </mxGeometry>
        </mxCell>
      </root>
    </mxGraphModel>
  </diagram>
</mxfile>
